<svg xmlns="http://www.w3.org/2000/svg" viewBox="0 0 191.81 69.14">
  <defs>
    <style>
      .cls-1 {
        fill: #0a523b;
      }

      .cls-2 {
        fill: #fbe6a0;
      }
    </style>
  </defs>
  <g id="Layer_2" data-name="Layer 2">
    <g id="Layer_1-2" data-name="Layer 1">
      <path class="cls-1" d="M70.85,21.65a.48.48,0,0,1-.51-.51V6.67H65.7a.51.51,0,0,1-.37-.14.48.48,0,0,1-.14-.38V5.8a.49.49,0,0,1,.14-.39.48.48,0,0,1,.37-.14H76.42a.5.5,0,0,1,.4.14A.49.49,0,0,1,77,5.8v.35a.48.48,0,0,1-.14.38.54.54,0,0,1-.4.14H71.81V21.14a.48.48,0,0,1-.14.37.5.5,0,0,1-.4.14Z"/>
      <path class="cls-1" d="M79.51,21.65a.48.48,0,0,1-.37-.14.51.51,0,0,1-.14-.37V5.55a.54.54,0,0,1,.14-.38A.51.51,0,0,1,79.51,5h.4a.48.48,0,0,1,.52.52v5.54A5.14,5.14,0,0,1,82,9.76,5.58,5.58,0,0,1,87,9.94a4.21,4.21,0,0,1,1.59,1.87,6.54,6.54,0,0,1,.53,2.68v6.65a.51.51,0,0,1-.14.37.5.5,0,0,1-.38.14h-.4a.48.48,0,0,1-.51-.51V14.61a4.37,4.37,0,0,0-.92-2.94,3.29,3.29,0,0,0-2.66-1.07,3.52,3.52,0,0,0-2.68,1.07,4.08,4.08,0,0,0-1,2.94v6.53a.51.51,0,0,1-.14.37.5.5,0,0,1-.38.14Z"/>
      <path class="cls-1" d="M97.33,21.89a4.62,4.62,0,0,1-3.61-1.49,6.42,6.42,0,0,1-1.52-3.9c0-.23,0-.54,0-.93s0-.71,0-.94A7.24,7.24,0,0,1,93,11.82a4.72,4.72,0,0,1,1.75-1.9,5,5,0,0,1,2.63-.68,5.17,5.17,0,0,1,2.79.73,4.69,4.69,0,0,1,1.76,2.08,7.66,7.66,0,0,1,.62,3.23v.36a.48.48,0,0,1-.15.37.56.56,0,0,1-.39.14H93.63v.24a5.35,5.35,0,0,0,.49,2,4,4,0,0,0,1.27,1.54,3.18,3.18,0,0,0,1.94.6A3.89,3.89,0,0,0,99,20.22a4.1,4.1,0,0,0,1.07-.66,3.11,3.11,0,0,0,.51-.55,1.14,1.14,0,0,1,.33-.37,1.11,1.11,0,0,1,.38-.05h.37a.56.56,0,0,1,.36.12.34.34,0,0,1,.13.34,1.63,1.63,0,0,1-.36.81,4.55,4.55,0,0,1-1,.95,5.35,5.35,0,0,1-1.51.77A6.2,6.2,0,0,1,97.33,21.89Zm-3.7-7h7.45v-.09a4.8,4.8,0,0,0-.45-2.11,3.49,3.49,0,0,0-3.3-2,3.58,3.58,0,0,0-2,.55,3.54,3.54,0,0,0-1.27,1.49,4.94,4.94,0,0,0-.43,2.11Z"/>
      <path class="cls-1" d="M66.62,43.15a.65.65,0,0,1-.43-.17.6.6,0,0,1-.18-.44V27.37a.58.58,0,0,1,.18-.43.61.61,0,0,1,.43-.18H78.09a.6.6,0,0,1,.44.18.56.56,0,0,1,.19.43v2.76a.59.59,0,0,1-.19.43.6.6,0,0,1-.44.18H70.85v2.32h6.72a.64.64,0,0,1,.45.18.57.57,0,0,1,.18.43V36.2a.58.58,0,0,1-.18.43.64.64,0,0,1-.45.18H70.85v2.36h7.42a.6.6,0,0,1,.45.19.61.61,0,0,1,.19.44v2.74a.61.61,0,0,1-.19.44.66.66,0,0,1-.45.17Z"/>
      <path class="cls-1" d="M81.67,43.15a.58.58,0,0,1-.61-.61V31.59a.62.62,0,0,1,.17-.44.64.64,0,0,1,.44-.17h3.39a.64.64,0,0,1,.44.17.62.62,0,0,1,.17.44v.84a5.11,5.11,0,0,1,1.62-1.2,5.24,5.24,0,0,1,2.29-.49,4.54,4.54,0,0,1,2.29.59,4.28,4.28,0,0,1,1.67,1.75,6.22,6.22,0,0,1,.63,3v6.51A.58.58,0,0,1,94,43a.64.64,0,0,1-.44.17h-3.7a.6.6,0,0,1-.43-.17.6.6,0,0,1-.18-.44V36.2a2,2,0,0,0-.42-1.34,1.53,1.53,0,0,0-1.2-.46,1.58,1.58,0,0,0-1.21.46A1.87,1.87,0,0,0,86,36.2v6.34a.64.64,0,0,1-.17.44.62.62,0,0,1-.44.17Z"/>
      <path class="cls-1" d="M102.36,43.39a7.73,7.73,0,0,1-3.15-.62A5.32,5.32,0,0,1,97,40.94,5.58,5.58,0,0,1,96.07,38q0-.37,0-.93t0-1A5.59,5.59,0,0,1,97,33.19a5.2,5.2,0,0,1,2.22-1.83,7.81,7.81,0,0,1,3.16-.62,8.07,8.07,0,0,1,3,.49,6.19,6.19,0,0,1,2,1.22,5.73,5.73,0,0,1,1.14,1.45,3.23,3.23,0,0,1,.4,1.22.5.5,0,0,1-.18.43.63.63,0,0,1-.43.18h-3.77a.62.62,0,0,1-.4-.12,1,1,0,0,1-.26-.35,2,2,0,0,0-.53-.76,1.31,1.31,0,0,0-.82-.24,1.21,1.21,0,0,0-1.08.5,2.77,2.77,0,0,0-.38,1.49,15.24,15.24,0,0,0,0,1.66,3,3,0,0,0,.39,1.48,1.22,1.22,0,0,0,1.07.48,1.28,1.28,0,0,0,.86-.24,2,2,0,0,0,.49-.76,1,1,0,0,1,.25-.37.65.65,0,0,1,.41-.12h3.77a.63.63,0,0,1,.43.18.57.57,0,0,1,.18.45,3.26,3.26,0,0,1-.25.88,5,5,0,0,1-.68,1.14,5.49,5.49,0,0,1-1.2,1.14,6.49,6.49,0,0,1-1.83.88A8.65,8.65,0,0,1,102.36,43.39Z"/>
      <path class="cls-1" d="M116.76,43.39a9,9,0,0,1-3.48-.61A4.74,4.74,0,0,1,111.12,41a5.94,5.94,0,0,1-.85-2.85c0-.33,0-.69,0-1.08s0-.75,0-1.07a5.51,5.51,0,0,1,.9-2.86,5,5,0,0,1,2.21-1.78,9.67,9.67,0,0,1,6.76,0,5,5,0,0,1,2.21,1.78,5.41,5.41,0,0,1,.89,2.86,8.84,8.84,0,0,1,.05,1.07,9.11,9.11,0,0,1-.05,1.08A5.83,5.83,0,0,1,122.4,41a4.74,4.74,0,0,1-2.16,1.79A9,9,0,0,1,116.76,43.39Zm0-3.31a1.3,1.3,0,0,0,1.19-.51,3.16,3.16,0,0,0,.38-1.55c0-.23,0-.55,0-1s0-.72,0-1a3.17,3.17,0,0,0-.38-1.53,1.29,1.29,0,0,0-1.19-.53,1.27,1.27,0,0,0-1.17.53,3.39,3.39,0,0,0-.4,1.53c0,.24,0,.56,0,1s0,.73,0,1a3.37,3.37,0,0,0,.4,1.55A1.29,1.29,0,0,0,116.76,40.08Z"/>
      <path class="cls-1" d="M129.75,43.39a4.56,4.56,0,0,1-2.28-.59A4.16,4.16,0,0,1,125.81,41a6.17,6.17,0,0,1-.62-2.95v-6.5a.58.58,0,0,1,.61-.61h3.69a.58.58,0,0,1,.61.61v6.34q0,1.8,1.62,1.8a1.52,1.52,0,0,0,1.2-.47,1.87,1.87,0,0,0,.44-1.33V31.59A.58.58,0,0,1,134,31h3.69a.65.65,0,0,1,.43.17.59.59,0,0,1,.18.44v11a.6.6,0,0,1-.18.44.65.65,0,0,1-.43.17h-3.41a.58.58,0,0,1-.61-.61V41.7A3.47,3.47,0,0,1,132.05,43,6.13,6.13,0,0,1,129.75,43.39Z"/>
      <path class="cls-1" d="M141.29,43.15a.61.61,0,0,1-.43-.17.6.6,0,0,1-.17-.44V31.59a.58.58,0,0,1,.17-.44.61.61,0,0,1,.43-.17h3.4a.61.61,0,0,1,.43.17.59.59,0,0,1,.18.44v.84a5,5,0,0,1,1.61-1.2,5.29,5.29,0,0,1,2.3-.49,4.57,4.57,0,0,1,2.29.59,4.26,4.26,0,0,1,1.66,1.75,6.22,6.22,0,0,1,.64,3v6.51a.61.61,0,0,1-.19.44.68.68,0,0,1-.45.17h-3.7A.61.61,0,0,1,149,43a.6.6,0,0,1-.17-.44V36.2a2,2,0,0,0-.43-1.34,1.51,1.51,0,0,0-1.19-.46,1.61,1.61,0,0,0-1.22.46,1.91,1.91,0,0,0-.44,1.34v6.34a.6.6,0,0,1-.18.44.6.6,0,0,1-.43.17Z"/>
      <path class="cls-1" d="M162.85,43.15a7.48,7.48,0,0,1-2.79-.47,3.74,3.74,0,0,1-1.88-1.53,5.3,5.3,0,0,1-.66-2.82V34.56h-1.85a.6.6,0,0,1-.44-.18.6.6,0,0,1-.17-.43V31.59a.62.62,0,0,1,.17-.44.64.64,0,0,1,.44-.17h1.85V27.14a.6.6,0,0,1,.17-.43.59.59,0,0,1,.44-.18h3.39a.61.61,0,0,1,.61.61V31h3a.61.61,0,0,1,.43.17.59.59,0,0,1,.18.44V34a.57.57,0,0,1-.18.43.58.58,0,0,1-.43.18h-3v3.37a1.79,1.79,0,0,0,.28,1.07,1,1,0,0,0,.89.38h2a.58.58,0,0,1,.43.18.56.56,0,0,1,.17.43v2.55a.6.6,0,0,1-.17.44.61.61,0,0,1-.43.17Z"/>
      <path class="cls-1" d="M173.65,43.39A6.8,6.8,0,0,1,169,41.87a5.92,5.92,0,0,1-1.77-4.62v-.47a6.93,6.93,0,0,1,.86-3.29,5.05,5.05,0,0,1,2.2-2,7.36,7.36,0,0,1,3.33-.71,6.79,6.79,0,0,1,3.57.86,5.44,5.44,0,0,1,2.12,2.27A7,7,0,0,1,180,37v.66a.61.61,0,0,1-.18.42.64.64,0,0,1-.45.18h-7.21v.15a3,3,0,0,0,.15,1,1.5,1.5,0,0,0,.48.68,1.34,1.34,0,0,0,.8.25,1.38,1.38,0,0,0,.52-.1,1.31,1.31,0,0,0,.37-.24,3.71,3.71,0,0,0,.28-.3,1.3,1.3,0,0,1,.34-.27,1.33,1.33,0,0,1,.41-.05h3.67a.49.49,0,0,1,.37.14.41.41,0,0,1,.13.35,2.34,2.34,0,0,1-.4,1,4.58,4.58,0,0,1-1.11,1.15,6.18,6.18,0,0,1-1.89.94A8.45,8.45,0,0,1,173.65,43.39Zm-1.48-7.71h2.91v0a3.1,3.1,0,0,0-.17-1.08,1.33,1.33,0,0,0-.49-.67,1.55,1.55,0,0,0-1.59,0,1.27,1.27,0,0,0-.49.67,3.1,3.1,0,0,0-.17,1.08Z"/>
      <path class="cls-1" d="M182.54,43.15a.61.61,0,0,1-.43-.17.6.6,0,0,1-.18-.44V31.59a.59.59,0,0,1,.18-.44.61.61,0,0,1,.43-.17h3.4a.61.61,0,0,1,.43.17.59.59,0,0,1,.18.44v.86a5.28,5.28,0,0,1,1.6-1.07,4.77,4.77,0,0,1,2-.4h1.05a.68.68,0,0,1,.45.17.59.59,0,0,1,.18.44v3a.58.58,0,0,1-.18.43.63.63,0,0,1-.45.17h-2.62a1.75,1.75,0,0,0-1.29.45,1.78,1.78,0,0,0-.44,1.29v5.59a.6.6,0,0,1-.18.44.61.61,0,0,1-.43.17Z"/>
      <path class="cls-1" d="M41.41,31.82c4.62,0,9.24,0,13.86,0a5.72,5.72,0,0,0,4.53-2,3.11,3.11,0,0,0,.79-2.92c-.92-3.55-1.82-7.1-2.78-10.63A3.43,3.43,0,0,0,54,13.91,13.5,13.5,0,0,0,50,15c-5.78,2.43-11.61,4.76-17.26,7.48A33.06,33.06,0,0,0,15.76,40.65a43.33,43.33,0,0,0-2.43,10c-.47,3.38-1,6.75-1.42,10.14A10.22,10.22,0,0,0,12,63.94,3.21,3.21,0,0,0,14.1,66.4c2,.81,3.87,1.68,5.8,2.5,1.47.62,2.82,0,3-1.57a18.39,18.39,0,0,0-.1-4.32c-.8-7.15-1.67-14.29-2.51-21.44a4.69,4.69,0,0,0-.12-.75.92.92,0,0,1,.75-1.3,1.32,1.32,0,0,1,1,.57c2.22,3.46,4.4,6.93,6.58,10.41q3.75,6,7.5,12a6.45,6.45,0,0,0,3.65,2.95,3.3,3.3,0,0,0,3.35-.69c2.75-2.49,5.51-4.95,8.25-7.45a3.87,3.87,0,0,0,.54-5,9.44,9.44,0,0,0-2.48-2.67Q38.06,42,26.64,34.48A1.3,1.3,0,0,1,26,32.72a1.16,1.16,0,0,1,1.35-.9c4.69,0,9.38,0,14.08,0Z"/>
      <path class="cls-1" d="M14.45,23,9.57,15.79c-.89-1.3-1.68-1.32-2.55,0s-1.81,3-2.63,4.51A1.8,1.8,0,0,0,5,23c1.9,1.41,3.81,2.79,5.68,4.23a1.7,1.7,0,0,1,.48,1.11c.06.68-.46.78-1,.8L3,29.36A2.14,2.14,0,0,0,.64,31.44C.43,33,.21,34.53,0,36.08c-.22,2,.49,2.47,2.33,1.73,3.13-1.25,6.33-2.31,8.86-4.73a30.78,30.78,0,0,0,8.6-14c1.08-3.82,1.53-7.82,2.24-11.74.15-.82.26-1.65.35-2.48.13-1.27-.83-2-1.91-1.4a55.6,55.6,0,0,0-5.19,3.38,3,3,0,0,0-1.14,2.81c.4,3.9.75,7.81,1.19,11.71C15.46,22.15,15.31,22.66,14.45,23Z"/>
      <path class="cls-2" d="M35.09,0A4.65,4.65,0,0,0,31,2.58c-2,3.66-4,7.34-5.93,11-1.08,2-2.15,4-3.21,6-.71,1.35-.56,1.94.68,2.85,2.3,1.69,2.51,1.64,4.44-.47,5-5.41,10-10.78,14.9-16.2a6.69,6.69,0,0,0,1.29-2.1,1.67,1.67,0,0,0-1.12-2.35C39.68.84,37.25.42,35.09,0Z"/>
      <path class="cls-2" d="M.88,47.88c.61,1.73,1.13,3.19,1.66,4.65a6.44,6.44,0,0,0,.58,1.4c.42.58.89,1.37,1.47,1.49.4.09,1.17-.71,1.49-1.28C8,50.8,9.78,47.41,11.61,44c.59-1.09,1.14-2.19,1.77-3.26a2.63,2.63,0,0,0-.17-3.12c-1.7-2.41-1.82-2.42-3.77-.22C7.15,40,4.8,42.53,2.55,45.14A18.93,18.93,0,0,0,.88,47.88Z"/>
    </g>
  </g>
</svg>
